<svg version="1.1" xmlns="http://www.w3.org/2000/svg" viewBox="-33.346687875856155 -39.047147194993464 63.00000200000001 76.3403650160005" fill="none" stroke="black" stroke-width="0.6%" vector-effect="non-scaling-stroke">
    <path d="M -32.01317 -24.77194 L -32.14691 -24.07689 A 30.5 15.77255 180 0 0 -32.34669 -22.27459 A 30.5 15.77255 180 0 0 20.61818 -11.60635 A 30.5 15.77255 180 0 0 28.65331 -22.27459 A 30.5 15.77255 180 0 0 -7.89538 -37.73387 L -9.22319 -37.60586 L -4.06398 -37.74615 A 30 15.51399 0 0 1 28.15331 -22.27459 A 30 15.51399 0 0 1 20.2499 -11.78124 A 30 15.51399 0 0 1 -31.84482 -22.10168 L -32.01317 -24.77194 Z" />
    <path d="M -32.34669 20.52066 A 30.5 15.77255 180 0 0 20.61818 31.1889 A 30.5 15.77255 180 0 0 28.65331 20.52066" />
    <path d="M -9.22319 -7.23689 L -9.22319 -37.60586" />
    <path d="M -4.06398 -6.80304 L -4.06398 -37.74615" />
    <path d="M -32.34669 -22.27459 L -32.34669 20.52066" />
    <path d="M 28.65331 -22.27459 L 28.65331 20.52066" />
</svg>