<svg version="1.1" xmlns="http://www.w3.org/2000/svg" viewBox="-27.74602266711155 -36.221543658238716 62.000001999999995 75.31359428181199" fill="none" stroke="black" stroke-width="0.6%" vector-effect="non-scaling-stroke">
    <path d="M 22.77785 34.64744 A 30 14.308 180 0 0 33.25398 23.78405" />
    <path d="M 22.77785 -9.29954 A 30 14.308 180 0 0 33.25398 -20.16292 A 30 14.308 180 0 0 4.61403 -34.45621 L -19.2972 -35.21909 A 5 2.38467 180 0 0 -22.77785 -34.64744 A 5 2.38467 180 0 0 -24.49464 -33.09435 L -26.57064 -21.70777 A 30 14.308 180 0 0 -26.74602 -20.16292 L -26.74602 23.78405 A 30 14.308 180 0 0 22.77785 34.64744" />
    <path d="M -26.74602 -20.16292 A 30 14.308 180 0 0 22.77785 -9.29954" />
    <path d="M 33.25398 -20.16292 L 33.25398 23.78405" />
</svg>