<svg version="1.1" xmlns="http://www.w3.org/2000/svg" viewBox="-35.00516139805475 -37.3660635288712 83.21086126500788 76.19951556821604" fill="none" stroke="black" stroke-width="0.6%" vector-effect="non-scaling-stroke">
    <path d="M -27.20545 -36.36606 L -30.98598 -32.36428 A 42.5 18.29509 180 0 0 -34.00516 -25.59182 A 42.5 18.29509 180 0 0 33.99219 -10.95489 A 42.5 18.29509 180 0 0 47.2057 -18.0405 A 40 17.21891 360 0 1 12.12441 -20.97727 L -21.88868 -32.60889 A 15 6.45709 360 0 1 -27.20545 -36.36606 Z" />
    <path d="M -34.00516 19.53836 A 42.5 18.29509 180 0 0 33.99219 34.17529 A 42.5 18.29509 180 0 0 47.2057 27.08968 L 47.2057 -18.0405" />
    <path d="M -34.00516 -25.59182 L -34.00516 19.53836" />
</svg>